<svg
  width="80"
  height="80"
  viewBox="0 0 80 80"
  xmlns="http://www.w3.org/2000/svg"
>
  <circle cx="40" cy="40" r="30" fill="#FFE59D" />
  <ellipse cx="40" cy="53" rx="20" ry="4" fill="#F06A8A" />
  <rect x="26" y="32" width="22" height="14" rx="3" fill="#FF8FB7" />
  <rect x="24" y="30" width="26" height="4" rx="2" fill="#FFB4CF" />
  <path
    d="M48 34
       C52 34, 53 38, 53 40
       C53 42, 52 46, 48 46"
    fill="none"
    stroke="#FF8FB7"
    stroke-width="3"
  />
  <rect x="28" y="35" width="18" height="2.5" fill="#F06A8A" opacity="0.7" />
  <path
    d="M34 28 C33 26, 33 24, 34 22"
    stroke="#FFFFFF"
    stroke-width="2"
    stroke-linecap="round"
  />
  <path
    d="M40 28 C39 26, 39 24, 40 22"
    stroke="#FFFFFF"
    stroke-width="2"
    stroke-linecap="round"
  />
  <path
    d="M46 28 C45 26, 45 24, 46 22"
    stroke="#FFFFFF"
    stroke-width="2"
    stroke-linecap="round"
  />
  <circle cx="18" cy="32" r="2" fill="#FFB4CF" />
  <circle cx="22" cy="50" r="2" fill="#FDCB6E" />
  <circle cx="60" cy="34" r="2" fill="#FF7675" />
  <circle cx="56" cy="50" r="2" fill="#74B9FF" />
  <path
    d="M24 22 L25.4 23.2 L27.2 22.8 L26.4 24.4 L27.4 26 L25.6 25.6 L24.4 27 L24.2 25.1 L22.6 24.3 L24.2 23.5 Z"
    fill="#FF7675"
  />
  <path
    d="M58 24 L59.2 25.1 L60.8 24.7 L60.1 26.2 L61.1 27.6 L59.4 27.3 L58.3 28.6 L58.1 26.9 L56.6 26.1 L58.1 25.4 Z"
    fill="#FDCB6E"
  />
</svg>
